<svg width="50" height="43" viewBox="0 0 50 43" fill="none" xmlns="http://www.w3.org/2000/svg">
<path d="M35.9815 33H14.0192C11.8028 33 10 31.2046 10 29.0001V13.9999C10 11.7942 11.8028 10 14.0192 10H35.9808C38.196 10 40 11.7942 40 13.9999V29.0001C40.0006 31.2052 38.1972 33 35.9815 33ZM14.0192 11.1429C12.4356 11.1429 11.1484 12.424 11.1484 13.9999V29.0001C11.1484 30.5755 12.4356 31.8571 14.0192 31.8571H35.9808C37.5638 31.8571 38.8516 30.5755 38.8516 29.0001V13.9999C38.8516 12.424 37.5638 11.1429 35.9808 11.1429H14.0192ZM30.7037 13.3599C32.1363 13.3599 33.2977 14.5153 33.2977 15.9415C33.2977 17.3677 32.1368 18.5238 30.7037 18.5238C29.2706 18.5238 28.1097 17.3678 28.1097 15.9415C28.1097 14.5152 29.2712 13.3599 30.7037 13.3599ZM34.3204 13.3599C35.7529 13.3599 36.9151 14.5153 36.9151 15.9415C36.9151 17.3677 35.7536 18.5238 34.3204 18.5238C32.8873 18.5238 31.7264 17.3678 31.7264 15.9415C31.7264 14.5152 32.8879 13.3599 34.3204 13.3599ZM13.0861 26.3339H17.8683V28.0481H13.0861V26.3339ZM19.4347 26.3339H24.2175V28.0481H19.4347V26.3339ZM25.782 26.3339H30.5659V28.0481H25.782V26.3339ZM32.1305 26.3339H36.9144V28.0481H32.1305V26.3339ZM13.0861 13.3605H22.1263V15.0747H13.0861V13.3605ZM13.0861 16.7621H17.8695V18.4764H13.0861V16.7621Z" fill="#292929"/>
</svg>
